# xmcd CD database file
# Copyright (C) 1993-1998 Ti Kan
# 
# Track frame offsets:
#     150
#     19240
#     34165
#     47125
#     76952
#     94217
#     114875
#     140815
#     155945
#     173310
#     194440
#     210237
#     253942
#     285270
#     302015
# 
# Disc length: 4232 seconds
# 
# Revision: 1
# Processed by: cddbd v1.4b41PL1 Copyright (c) Steve Scherf et al.
# Submitted via: DiscPlay 4.0.4
# 
DISCID=c910860f
DTITLE=Sven Zetterberg and the Chicago Express - Steppin' out - Alive
DYEAR=1900
DGENRE=
TTITLE0=Tip on in
TTITLE1=Party girl
TTITLE2=Warm and tender love
TTITLE3=All for business
TTITLE4=Don't slow me down
TTITLE5=You don't know what love is
TTITLE6=Riding high
TTITLE7=Rambler blues
TTITLE8=Act like you love me
TTITLE9=You took off with my life
TTITLE10=The groove
TTITLE11=Open house at my house
TTITLE12=That's what love will make you do
TTITLE13=Down in the bottom
TTITLE14=You can't sit down
EXTD=
EXTT0=
EXTT1=
EXTT2=
EXTT3=
EXTT4=
EXTT5=
EXTT6=
EXTT7=
EXTT8=
EXTT9=
EXTT10=
EXTT11=
EXTT12=
EXTT13=
EXTT14=
PLAYORDER=
